<svg width="494" height="496" viewBox="0 0 494 496" fill="none" xmlns="http://www.w3.org/2000/svg">
<path d="M212.635 91.6053C216.059 91.3195 219.478 91.7455 222.903 91.7913C303.412 92.8668 391.135 130.311 433.712 201.332C437.82 208.184 442.667 218.275 444.915 225.858C442.762 225.49 434.145 225.675 431.56 225.676L402.875 225.691L364.865 225.739C356.342 208.102 341.835 192.833 326.207 181.315C288.462 153.497 237.155 143.28 191.23 150.087C190.165 145.791 187.518 139.554 186.049 135.178C181.559 121.798 176.083 108.266 171.868 94.8443C179.885 92.8215 190.08 92.8715 198.368 92.0793C203.053 91.6315 207.876 92.0203 212.635 91.6053Z" fill="white"/>
<path d="M213.539 176.098C217.361 175.735 223.115 176.123 226.992 176.263C239.264 176.705 255.485 178.5 267.21 182.043C259.675 189.893 251.402 197.95 243.676 205.687L201.406 247.974L126.581 323.252C124.611 325.247 122.207 327.83 120.06 329.545C112.914 324.01 104.529 316.11 97.5122 310.047L86.4037 300.47C83.8587 298.282 80.4522 295.447 78.2537 293.075C78.5529 292.567 78.8897 292.085 79.2614 291.627C80.0139 290.685 82.3147 288.475 83.2322 287.55L91.8002 278.97L117.439 253.357L173.317 197.477C179.453 191.354 186.849 183.456 193.375 177.927C194.762 176.752 210.38 176.457 213.539 176.098Z" fill="white"/>
<path d="M329.843 336.055C334.465 335.725 340.143 335.9 344.87 335.917L367.738 335.935C387.77 335.935 409.105 335.567 429.023 336.042C426.275 340.99 420.575 348.37 416.928 352.685C396.595 376.742 373.258 390.947 344.208 401.965C321.543 410.187 295.21 413.587 271.19 412.957C270.675 409.605 268.373 402.247 267.37 398.727L259.575 371.472C258.77 368.692 256.51 361.107 256.133 358.477C256.805 358.095 259.125 358.515 260.168 358.442C282.263 356.922 304.545 351.055 323.508 339.38C325.343 338.252 327.795 336.6 329.843 336.055Z" fill="white"/>
<path d="M205.305 282.757L205.853 282.962C207.582 285.662 212.426 304.017 213.621 308.162C226.45 352.405 238.001 397.005 248.258 441.912L255.457 473.147C256.977 479.635 259.422 489.047 260.127 495.465C259.21 493.937 258.32 492.08 257.517 490.47C254.627 484.682 251.305 478.897 248.735 472.972C246.269 468.437 243.64 462.895 241.32 458.222L228.721 432.747C215.905 406.937 203.381 380.982 191.152 354.89C184.994 341.735 179.059 327.732 172.827 314.81C182.448 304.56 195.074 292.69 205.305 282.757Z" fill="white"/>
<path d="M98.1389 359.085C102.218 360.025 108.078 359.47 112.327 359.472C117.417 359.472 160.958 359.012 162.322 359.682C163.187 360.107 163.997 361.677 164.427 362.515C166.477 366.502 168.228 370.72 170.055 374.815L178.005 392.39L184.54 406.827C185.346 408.62 186.929 411.8 187.533 413.517L187.233 413.922L186.563 414.005C178.351 414.005 170.29 414.412 162.105 414.522L98.0441 415.017C97.7319 403.54 98.0246 391.422 97.9539 379.875C97.9231 374.882 97.6131 363.602 98.1389 359.085Z" fill="white"/>
<path d="M348.098 22.9238C348.275 22.9516 348.553 22.9744 348.685 23.1092C361.558 36.0666 374.418 49.0996 387.5 61.8396C381.313 67.9021 375.17 74.0106 369.073 80.1654C366.59 82.6574 360.243 89.4534 357.535 91.0534C355 89.4006 350.823 87.1471 348.105 85.8126C338.163 79.8816 326.073 75.5341 315.338 71.2196C313.308 70.4036 304.898 68.1194 304.33 66.8876C304.618 65.9396 306.26 64.5794 307.063 63.7729L314.805 55.9846L335.81 34.9789C339.04 31.7294 344.785 25.6116 348.098 22.9238Z" fill="white"/>
<path d="M225.072 253.137C227.346 252.942 232.01 253.09 234.474 253.095L252.72 253.117H311.645L494 253.13V308.585C476.05 308.337 457.44 308.585 439.448 308.585L329.863 308.582L272.875 308.577L255.013 308.582C251.765 308.59 247.361 308.475 244.191 308.795C239.906 296.525 235.7 284.227 231.573 271.902C229.641 266.23 227.332 258.527 225.072 253.137Z" fill="white"/>
<path d="M107.558 0H108.901C110.239 4.76923 113.69 13.2659 115.484 18.2696L130.663 60.2967C143.159 95.0685 155.474 129.905 167.609 164.804L138.902 193.069C135.438 196.47 130.455 201.766 126.972 204.776C125.241 201.213 122.991 195.019 121.491 191.169L111.995 166.803C99.7449 135.046 87.7364 103.197 75.9712 71.257L62.6524 35.045C61.6897 32.418 57.4002 21.2357 57.0022 18.9461C59.2804 16.4433 95.9634 5.04988 101.732 2.27333C103.17 1.58168 105.869 1.11563 107.558 0Z" fill="white"/>
<path d="M0 239.309C0.778238 237.593 0.664125 232.373 1.00264 230.107C5.41255 200.586 21.2083 173.606 42.726 153.23C50.6723 145.682 59.5232 138.078 69.1247 132.381C71.3842 137.697 88.3785 183.19 88.0192 184.128C87.8132 184.665 87.1745 185.088 86.7162 185.411C79.8177 190.266 73.0433 194.31 66.385 199.689C49.2923 213.499 34.6555 230.183 24.6706 249.852C19.3013 260.612 15.5001 272.085 13.3826 283.922C12.9417 286.517 12.0805 295.435 11.6199 296.965L11.3294 297.007C7.93183 294.34 1.01638 267.842 0.882357 262.707C0.848607 261.412 0.43974 256.13 0 255.172V239.309Z" fill="white"/>
</svg>
