<svg width="1794" height="1751" viewBox="0 0 1794 1751" fill="none" xmlns="http://www.w3.org/2000/svg">
<g filter="url(#filter0_f_65_54)">
<ellipse cx="218.638" cy="332.428" rx="218.638" ry="332.428" transform="matrix(0.548216 -0.836337 -0.836337 -0.548216 1057.19 1270.81)" fill="#A0713A"/>
</g>
<mask id="mask0_65_54" style="mask-type:alpha" maskUnits="userSpaceOnUse" x="348" y="376" width="1122" height="1014">
<path d="M348.439 776.053L841.72 376.352L1328.29 694.323L1469.48 833.524L1465.35 1226.35L1238.59 1389.67L737.018 1060.89L348.439 776.053Z" fill="url(#paint0_linear_65_54)"/>
</mask>
<g mask="url(#mask0_65_54)">
</g>
<mask id="mask1_65_54" style="mask-type:alpha" maskUnits="userSpaceOnUse" x="409" y="313" width="1231" height="1121">
<path d="M1279.79 1433.2C1434.22 1196.76 1631.19 895.113 1639.81 883.95L769.997 313.788L409.969 863.033L1279.79 1433.2Z" fill="url(#paint1_linear_65_54)"/>
</mask>
<g mask="url(#mask1_65_54)">
<path d="M1225.05 719.409C1126.95 655.103 989.02 685.623 939.311 761.458C889.601 837.293 864.079 962.845 969.336 1031.84C1021.5 1066.03 1051.6 1158.24 1138.32 1161.1C1226.61 1164 1280.06 1051.17 1305.14 1012.92C1354.85 937.082 1323.16 783.716 1225.05 719.409Z" fill="#A0713A"/>
<g filter="url(#filter1_f_65_54)">
<path d="M1221.97 726.675C1116.76 657.708 993.799 681.059 951.07 746.244C908.342 811.429 891.965 922.994 997.179 991.962C1049.32 1026.14 1082.95 1112.91 1166.17 1121.05C1250.89 1129.34 1294.83 1031.04 1316.38 998.153C1359.11 932.968 1327.19 795.643 1221.97 726.675Z" fill="#A0713A"/>
</g>
<g filter="url(#filter2_f_65_54)">
<path d="M1218.78 724.587C1100.86 647.288 957.705 681.608 905.026 761.973C852.346 842.339 827.706 976.968 945.631 1054.27C1004.07 1092.57 1033.53 1202.38 1129.19 1207.87C1226.57 1213.46 1286.81 1086.52 1313.38 1045.98C1366.06 965.614 1336.71 801.886 1218.78 724.587Z" fill="#A0713A"/>
</g>
<g filter="url(#filter3_f_65_54)">
<path d="M1198.94 725.183C1040.42 649.46 851.495 674.641 789.841 768.698C728.187 862.756 735.432 1012.88 876.86 1105.58C946.944 1151.52 969.841 1313.09 1083.81 1320.83C1199.83 1328.71 1264.64 1187.8 1295.74 1140.35C1357.4 1046.29 1382.57 812.905 1198.94 725.183Z" fill="#A0713A"/>
</g>
<g filter="url(#filter4_f_65_54)">
<path d="M1124.93 731.094C972.65 631.275 762.118 666.526 701.838 758.486C641.559 850.447 655.961 1002.02 808.241 1101.84C883.703 1151.3 952.323 1246.46 1072 1259.43C1193.82 1272.64 1255.28 1133.61 1285.69 1087.22C1345.97 995.263 1277.21 830.913 1124.93 731.094Z" fill="#A0713A"/>
</g>
<g filter="url(#filter5_f_65_54)">
<path d="M1041.6 728.951C884.233 625.797 667.511 660.94 605.856 754.997C544.202 849.055 559.777 1004.63 717.144 1107.79C795.127 1158.91 866.284 1256.87 989.637 1270.76C1115.21 1284.9 1177.85 1142.56 1208.95 1095.12C1270.6 1001.06 1198.97 832.105 1041.6 728.951Z" fill="#A0713A"/>
</g>
<g filter="url(#filter6_f_65_54)">
<path d="M1169.77 791.58C1032.07 701.32 832.282 747.563 770.628 841.621C708.974 935.678 714.27 1084.52 851.967 1174.78C920.202 1219.51 986.652 1298.84 1098.42 1305.14C1212.2 1311.55 1277.53 1170.97 1308.63 1123.52C1370.28 1029.47 1307.46 881.839 1169.77 791.58Z" fill="#A0713A"/>
</g>
</g>
<g filter="url(#filter7_f_65_54)">
<path d="M1062.88 1170.8C1093.28 1149.57 1121.69 1070.71 1146.47 984.066L1207.55 890.884C1260.68 809.825 1117.34 747.273 979.326 723.956C841.312 700.639 845.516 700.145 796.587 780.711C747.657 861.277 721.224 787.63 634.407 779.46C547.589 771.289 722.548 798.624 755.437 906.827C788.325 1015.03 732.511 995.396 875.904 1017.91C1019.3 1040.42 997.382 1063.97 981.906 1094.97C966.431 1125.98 933.853 1104.64 919.866 1133.37C905.879 1162.11 928.076 1159.33 982.301 1174.3C1036.53 1189.27 1032.47 1192.02 1062.88 1170.8Z" fill="white"/>
</g>
<mask id="mask2_65_54" style="mask-type:alpha" maskUnits="userSpaceOnUse" x="497" y="465" width="963" height="976">
<path d="M1114.25 465.998L1459.47 988.017L1143 1344.99L1006.23 1440.31L636.953 1358.86L497.228 1123.24L829.132 749.287L1114.25 465.998Z" fill="url(#paint2_linear_65_54)"/>
</mask>
<g mask="url(#mask2_65_54)">
<mask id="mask3_65_54" style="mask-type:alpha" maskUnits="userSpaceOnUse" x="476" y="494" width="1043" height="1073">
<path d="M476.37 1164.7C687.836 1351.88 918.723 1556.09 928.637 1566.11L1518.48 895.836L1066.22 494.429L476.37 1164.7Z" fill="url(#paint3_linear_65_54)"/>
</mask>
<g mask="url(#mask3_65_54)">
<path d="M1120.55 1254.24C1185.47 1181.1 1164.4 1052.46 1096.59 992.274C1028.77 932.084 913.494 882.704 843.842 961.182C809.326 1000.07 722.083 1007.05 714.846 1083.23C707.48 1160.78 809.465 1232.17 843.676 1262.54C911.492 1322.73 1055.63 1327.39 1120.55 1254.24Z" fill="#A0713A"/>
<g filter="url(#filter8_f_65_54)">
<path d="M1113.96 1249.96C1183.59 1171.52 1174.69 1063.25 1122.03 1016.52C1069.38 969.795 974.021 938.068 904.397 1016.51C869.895 1055.39 791.439 1070.13 776.666 1139.59C761.629 1210.29 842.926 1263.34 869.486 1286.91C922.136 1333.64 1044.34 1328.41 1113.96 1249.96Z" fill="#A0713A"/>
</g>
<g filter="url(#filter9_f_65_54)">
<path d="M1116.07 1247.59C1194.1 1159.67 1177.43 1032.38 1112.42 974.682C1047.41 916.98 932.651 874.43 854.616 962.352C815.946 1005.92 717.788 1013.38 704.219 1093.87C690.407 1175.82 795.209 1247.41 828.005 1276.52C893.017 1334.22 1038.03 1335.51 1116.07 1247.59Z" fill="#A0713A"/>
</g>
<g filter="url(#filter10_f_65_54)">
<path d="M1103.87 1218.56C1182.59 1094.36 1169.18 921.716 1085.07 847.063C1000.95 772.41 861.123 746.801 767.536 852.246C721.159 904.499 569.868 890.308 556.654 989.565C543.204 1090.6 702.384 1220.69 744.814 1258.35C828.927 1333 1012.68 1362.44 1103.87 1218.56Z" fill="#A0713A"/>
</g>
<g filter="url(#filter11_f_65_54)">
<path d="M1107.79 1171.21C1208.56 1057.67 1194.13 855.635 1111.9 782.646C1029.66 709.657 888.104 690.076 787.336 803.613C737.4 859.876 645.384 900.334 627.008 1003.53C608.302 1108.57 749.371 1293.1 790.855 1329.92C873.093 1402.9 1007.02 1284.74 1107.79 1171.21Z" fill="#A0713A"/>
</g>
<g filter="url(#filter12_f_65_54)">
<path d="M1121.38 1089.78C1225.51 972.445 1204.32 773.061 1120.21 698.407C1036.1 623.754 890.755 604.355 786.62 721.685C735.016 779.828 771.757 967.637 752.334 1073.89C732.561 1182.05 861.471 1267.88 903.902 1305.54C988.014 1380.19 1017.24 1207.1 1121.38 1089.78Z" fill="#A0713A"/>
</g>
<g filter="url(#filter13_f_65_54)">
<path d="M1056.43 1189.9C1147.55 1087.23 1115.15 900.473 1031.04 825.819C946.925 751.166 808.385 724.104 717.267 826.768C672.113 877.643 594.914 919.556 583.154 1017.18C571.183 1116.55 698.319 1204.38 740.75 1242.03C824.862 1316.69 965.312 1292.56 1056.43 1189.9Z" fill="#A0713A"/>
</g>
</g>
</g>
<mask id="mask4_65_54" style="mask-type:alpha" maskUnits="userSpaceOnUse" x="222" y="169" width="1350" height="1412">
<path d="M919.369 169.813C691.977 333.036 234.187 661.268 222.163 668.418L874.472 1580.55L1571.68 1081.95L919.369 169.813Z" fill="url(#paint4_linear_65_54)"/>
</mask>
<g mask="url(#mask4_65_54)">
<path d="M526.732 1029.99C615.816 1110.31 743.702 1161.05 816.804 1108.77C889.907 1056.49 956.059 946.239 877.123 835.861C838.006 781.163 888.114 747.95 805.237 708.999C720.87 669.348 631.924 755.692 595.047 782.064C521.944 834.344 437.648 949.674 526.732 1029.99Z" fill="#E1DCC9"/>
<g filter="url(#filter14_f_65_54)">
<path d="M539.55 1038.84C702.44 1157.25 737.576 1163.45 800.413 1118.51C863.25 1073.57 915.942 972.972 837.038 862.639C797.937 807.964 843.773 779.828 766.027 737.247C686.883 693.901 610.148 771.504 578.45 794.173C515.613 839.11 454.905 983.359 539.55 1038.84Z" fill="#E1DCC9"/>
</g>
<g filter="url(#filter15_f_65_54)">
<path d="M534.504 1027.62C705.259 1186.34 866.104 1188.04 943.574 1132.64C1021.04 1077.24 995.883 947.818 907.447 824.156C863.622 762.875 953.906 760.16 863.26 714.943C770.986 668.913 651.97 759.646 612.89 787.594C535.42 842.997 446.068 903.957 534.504 1027.62Z" fill="#E1DCC9"/>
</g>
<g filter="url(#filter16_f_65_54)">
<path d="M553.884 1035.33C702.262 1177.57 926.903 1262.51 1017.57 1197.67C1108.24 1132.83 1096.93 951.757 990.87 803.449C938.311 729.956 1052.04 680.136 944.446 625.109C834.918 569.093 725.711 677.74 679.973 710.449C589.304 775.29 405.506 893.087 553.884 1035.33Z" fill="#E1DCC9"/>
</g>
<g filter="url(#filter17_f_65_54)">
<path d="M682.207 1120.7C944.594 1292.69 953.275 1290.63 1041.92 1227.23C1130.57 1163.84 1170.16 995.384 1055.96 835.695C999.363 756.562 969.651 748.496 858.271 686.049C744.889 622.479 620.379 751.624 575.661 783.604C487.013 847 530.043 1020.95 682.207 1120.7Z" fill="#E1DCC9"/>
</g>
<g filter="url(#filter18_f_65_54)">
<path d="M707.2 1097.37C825.216 1262.4 1046.3 1319.02 1136.96 1254.18C1227.63 1189.33 1263.99 1033.01 1145.97 867.988C1087.49 786.211 991.773 645.207 877.14 580.339C760.447 514.305 683.654 774.697 637.917 807.407C547.248 872.248 589.184 932.35 707.2 1097.37Z" fill="#E1DCC9"/>
</g>
<g filter="url(#filter19_f_65_54)">
<path d="M604.021 983.561C707.285 1127.96 915.665 1166.82 1006.33 1101.98C1097 1037.14 1141.06 891.591 1037.8 747.195C986.628 675.64 1046.08 707.807 940.137 655.083C832.286 601.412 722.697 709.526 676.96 742.235C586.291 807.077 500.757 839.165 604.021 983.561Z" fill="#E1DCC9"/>
</g>
</g>
<g opacity="0.6" filter="url(#filter20_f_65_54)">
<path d="M1011.84 778.487C891.079 699.33 680.317 716.903 640.054 778.326C599.792 839.749 418.409 920.769 797.411 993.785C918.17 1072.94 983.189 1285.93 1077.36 1064.98C1117.62 1003.56 947.395 988.62 1011.84 778.487Z" fill="#F0EDE1"/>
</g>
<defs>
<filter id="filter0_f_65_54" x="478.598" y="529.953" width="840.861" height="751.516" filterUnits="userSpaceOnUse" color-interpolation-filters="sRGB">
<feFlood flood-opacity="0" result="BackgroundImageFix"/>
<feBlend mode="normal" in="SourceGraphic" in2="BackgroundImageFix" result="shape"/>
<feGaussianBlur stdDeviation="58.7975" result="effect1_foregroundBlur_65_54"/>
</filter>
<filter id="filter1_f_65_54" x="913.369" y="680.186" width="426.092" height="446.061" filterUnits="userSpaceOnUse" color-interpolation-filters="sRGB">
<feFlood flood-opacity="0" result="BackgroundImageFix"/>
<feBlend mode="normal" in="SourceGraphic" in2="BackgroundImageFix" result="shape"/>
<feGaussianBlur stdDeviation="2.3519" result="effect1_foregroundBlur_65_54"/>
</filter>
<filter id="filter2_f_65_54" x="844.747" y="664.725" width="510.257" height="559.789" filterUnits="userSpaceOnUse" color-interpolation-filters="sRGB">
<feFlood flood-opacity="0" result="BackgroundImageFix"/>
<feBlend mode="normal" in="SourceGraphic" in2="BackgroundImageFix" result="shape"/>
<feGaussianBlur stdDeviation="8.23164" result="effect1_foregroundBlur_65_54"/>
</filter>
<filter id="filter3_f_65_54" x="729.465" y="657.18" width="635.409" height="687.487" filterUnits="userSpaceOnUse" color-interpolation-filters="sRGB">
<feFlood flood-opacity="0" result="BackgroundImageFix"/>
<feBlend mode="normal" in="SourceGraphic" in2="BackgroundImageFix" result="shape"/>
<feGaussianBlur stdDeviation="11.7595" result="effect1_foregroundBlur_65_54"/>
</filter>
<filter id="filter4_f_65_54" x="605.198" y="607.494" width="765.732" height="716.319" filterUnits="userSpaceOnUse" color-interpolation-filters="sRGB">
<feFlood flood-opacity="0" result="BackgroundImageFix"/>
<feBlend mode="normal" in="SourceGraphic" in2="BackgroundImageFix" result="shape"/>
<feGaussianBlur stdDeviation="31.7506" result="effect1_foregroundBlur_65_54"/>
</filter>
<filter id="filter5_f_65_54" x="414.691" y="508.698" width="973.853" height="920.624" filterUnits="userSpaceOnUse" color-interpolation-filters="sRGB">
<feFlood flood-opacity="0" result="BackgroundImageFix"/>
<feBlend mode="normal" in="SourceGraphic" in2="BackgroundImageFix" result="shape"/>
<feGaussianBlur stdDeviation="78.7886" result="effect1_foregroundBlur_65_54"/>
</filter>
<filter id="filter6_f_65_54" x="660.014" y="670.038" width="745.243" height="708.221" filterUnits="userSpaceOnUse" color-interpolation-filters="sRGB">
<feFlood flood-opacity="0" result="BackgroundImageFix"/>
<feBlend mode="normal" in="SourceGraphic" in2="BackgroundImageFix" result="shape"/>
<feGaussianBlur stdDeviation="36.4544" result="effect1_foregroundBlur_65_54"/>
</filter>
<filter id="filter7_f_65_54" x="530.522" y="630.392" width="768.328" height="635.694" filterUnits="userSpaceOnUse" color-interpolation-filters="sRGB">
<feFlood flood-opacity="0" result="BackgroundImageFix"/>
<feBlend mode="normal" in="SourceGraphic" in2="BackgroundImageFix" result="shape"/>
<feGaussianBlur stdDeviation="39.9823" result="effect1_foregroundBlur_65_54"/>
</filter>
<filter id="filter8_f_65_54" x="770.122" y="964.143" width="398.433" height="357.283" filterUnits="userSpaceOnUse" color-interpolation-filters="sRGB">
<feFlood flood-opacity="0" result="BackgroundImageFix"/>
<feBlend mode="normal" in="SourceGraphic" in2="BackgroundImageFix" result="shape"/>
<feGaussianBlur stdDeviation="2.3519" result="effect1_foregroundBlur_65_54"/>
</filter>
<filter id="filter9_f_65_54" x="686.509" y="895.593" width="498.111" height="438.031" filterUnits="userSpaceOnUse" color-interpolation-filters="sRGB">
<feFlood flood-opacity="0" result="BackgroundImageFix"/>
<feBlend mode="normal" in="SourceGraphic" in2="BackgroundImageFix" result="shape"/>
<feGaussianBlur stdDeviation="8.23164" result="effect1_foregroundBlur_65_54"/>
</filter>
<filter id="filter10_f_65_54" x="532.332" y="758.383" width="647.311" height="585.586" filterUnits="userSpaceOnUse" color-interpolation-filters="sRGB">
<feFlood flood-opacity="0" result="BackgroundImageFix"/>
<feBlend mode="normal" in="SourceGraphic" in2="BackgroundImageFix" result="shape"/>
<feGaussianBlur stdDeviation="11.7595" result="effect1_foregroundBlur_65_54"/>
</filter>
<filter id="filter11_f_65_54" x="561.808" y="659.68" width="680.217" height="756.253" filterUnits="userSpaceOnUse" color-interpolation-filters="sRGB">
<feFlood flood-opacity="0" result="BackgroundImageFix"/>
<feBlend mode="normal" in="SourceGraphic" in2="BackgroundImageFix" result="shape"/>
<feGaussianBlur stdDeviation="31.7506" result="effect1_foregroundBlur_65_54"/>
</filter>
<filter id="filter12_f_65_54" x="592.709" y="480.468" width="756.503" height="1000.74" filterUnits="userSpaceOnUse" color-interpolation-filters="sRGB">
<feFlood flood-opacity="0" result="BackgroundImageFix"/>
<feBlend mode="normal" in="SourceGraphic" in2="BackgroundImageFix" result="shape"/>
<feGaussianBlur stdDeviation="78.7886" result="effect1_foregroundBlur_65_54"/>
</filter>
<filter id="filter13_f_65_54" x="509.454" y="686.534" width="674.649" height="671.884" filterUnits="userSpaceOnUse" color-interpolation-filters="sRGB">
<feFlood flood-opacity="0" result="BackgroundImageFix"/>
<feBlend mode="normal" in="SourceGraphic" in2="BackgroundImageFix" result="shape"/>
<feGaussianBlur stdDeviation="36.4544" result="effect1_foregroundBlur_65_54"/>
</filter>
<filter id="filter14_f_65_54" x="493.244" y="719.607" width="388.216" height="429.41" filterUnits="userSpaceOnUse" color-interpolation-filters="sRGB">
<feFlood flood-opacity="0" result="BackgroundImageFix"/>
<feBlend mode="normal" in="SourceGraphic" in2="BackgroundImageFix" result="shape"/>
<feGaussianBlur stdDeviation="2.3519" result="effect1_foregroundBlur_65_54"/>
</filter>
<filter id="filter15_f_65_54" x="481.321" y="685.673" width="524.96" height="496.417" filterUnits="userSpaceOnUse" color-interpolation-filters="sRGB">
<feFlood flood-opacity="0" result="BackgroundImageFix"/>
<feBlend mode="normal" in="SourceGraphic" in2="BackgroundImageFix" result="shape"/>
<feGaussianBlur stdDeviation="8.23164" result="effect1_foregroundBlur_65_54"/>
</filter>
<filter id="filter16_f_65_54" x="474.455" y="585.815" width="627.746" height="657.471" filterUnits="userSpaceOnUse" color-interpolation-filters="sRGB">
<feFlood flood-opacity="0" result="BackgroundImageFix"/>
<feBlend mode="normal" in="SourceGraphic" in2="BackgroundImageFix" result="shape"/>
<feGaussianBlur stdDeviation="11.7595" result="effect1_foregroundBlur_65_54"/>
</filter>
<filter id="filter17_f_65_54" x="466.501" y="605.192" width="723.307" height="725.061" filterUnits="userSpaceOnUse" color-interpolation-filters="sRGB">
<feFlood flood-opacity="0" result="BackgroundImageFix"/>
<feBlend mode="normal" in="SourceGraphic" in2="BackgroundImageFix" result="shape"/>
<feGaussianBlur stdDeviation="31.7506" result="effect1_foregroundBlur_65_54"/>
</filter>
<filter id="filter18_f_65_54" x="431.294" y="412.08" width="946.916" height="1025.89" filterUnits="userSpaceOnUse" color-interpolation-filters="sRGB">
<feFlood flood-opacity="0" result="BackgroundImageFix"/>
<feBlend mode="normal" in="SourceGraphic" in2="BackgroundImageFix" result="shape"/>
<feGaussianBlur stdDeviation="78.7886" result="effect1_foregroundBlur_65_54"/>
</filter>
<filter id="filter19_f_65_54" x="483.951" y="567.473" width="686.421" height="637.764" filterUnits="userSpaceOnUse" color-interpolation-filters="sRGB">
<feFlood flood-opacity="0" result="BackgroundImageFix"/>
<feBlend mode="normal" in="SourceGraphic" in2="BackgroundImageFix" result="shape"/>
<feGaussianBlur stdDeviation="36.4544" result="effect1_foregroundBlur_65_54"/>
</filter>
<filter id="filter20_f_65_54" x="462.602" y="626.709" width="719.779" height="634.467" filterUnits="userSpaceOnUse" color-interpolation-filters="sRGB">
<feFlood flood-opacity="0" result="BackgroundImageFix"/>
<feBlend mode="normal" in="SourceGraphic" in2="BackgroundImageFix" result="shape"/>
<feGaussianBlur stdDeviation="49.3899" result="effect1_foregroundBlur_65_54"/>
</filter>
<linearGradient id="paint0_linear_65_54" x1="1096.43" y1="920.384" x2="1195.26" y2="1235.64" gradientUnits="userSpaceOnUse">
<stop stop-color="#C4C4C4"/>
<stop offset="1" stop-color="#C4C4C4" stop-opacity="0"/>
</linearGradient>
<linearGradient id="paint1_linear_65_54" x1="1219.11" y1="732.573" x2="951.709" y2="1113.48" gradientUnits="userSpaceOnUse">
<stop stop-color="#C4C4C4"/>
<stop offset="1" stop-color="#C4C4C4" stop-opacity="0"/>
</linearGradient>
<linearGradient id="paint2_linear_65_54" x1="1116.48" y1="1039.5" x2="884.043" y2="1261.73" gradientUnits="userSpaceOnUse">
<stop stop-color="#C4C4C4"/>
<stop offset="0.943414" stop-color="#C4C4C4" stop-opacity="0"/>
</linearGradient>
<linearGradient id="paint3_linear_65_54" x1="1040.52" y1="1185.04" x2="737.366" y2="968.018" gradientUnits="userSpaceOnUse">
<stop stop-color="#C4C4C4"/>
<stop offset="1" stop-color="#C4C4C4" stop-opacity="0"/>
</linearGradient>
<linearGradient id="paint4_linear_65_54" x1="536.833" y1="1019.79" x2="1175.12" y2="917.792" gradientUnits="userSpaceOnUse">
<stop stop-color="#C4C4C4"/>
<stop offset="1" stop-color="#C4C4C4" stop-opacity="0"/>
</linearGradient>
</defs>
</svg>
